<?xml version="1.0" encoding="UTF-8"?>
<svg id="a" data-name="Layer 1" xmlns="http://www.w3.org/2000/svg" viewBox="0 0 64 64">
  <defs>
    <style>
      .b {
        fill: #e5e5e5;
      }

      .c {
        fill: #131316;
      }
    </style>
  </defs>
  <path class="c" d="m62,32.42c0,.41-.1.81-.3,1.15-.2.35-.47.64-.82.86l-1.32.82c-.7.43-1.12,1.19-1.12,2.01v12.44c0,6.43-5.21,11.64-11.64,11.64h-29.59c-6.43,0-11.64-5.21-11.64-11.64v-12.44c0-.82-.43-1.58-1.12-2.01l-1.32-.82c-.35-.22-.63-.51-.82-.86-.2-.35-.3-.74-.3-1.15,0-.84.44-1.62,1.17-2.04l1.23-.72c.72-.42,1.17-1.2,1.17-2.04v-13.33c0-6.43,5.21-11.64,11.64-11.64h29.59c6.43,0,11.64,5.21,11.64,11.64v13.33c0,.84.44,1.62,1.17,2.04l1.23.72c.73.42,1.17,1.2,1.17,2.04Z"/>
  <g>
    <path class="b" d="m15.55,15.15v10.46c0,3.98-3.17,4.63-3.17,4.63,0,0,3.16.65,3.17,4.63v1.17c0,4.42,3.59,8.01,8.01,8.01v-20.88c0-2.21-.9-4.21-2.35-5.66-1.45-1.45-3.45-2.35-5.66-2.35Z"/>
    <path class="b" d="m32,17.35c-2.21,0-4,1.79-4,4v27.47c0,2.21,1.79,4,4,4s4-1.79,4-4v-27.47c0-1.11-.45-2.11-1.17-2.83s-1.73-1.17-2.83-1.17Z"/>
    <path class="b" d="m48.45,25.61v-10.45c-4.42,0-8.01,3.59-8.01,8.01v20.88c4.42,0,8.01-3.59,8.01-8.01v-1.16c0-3.99,3.17-4.64,3.17-4.64,0,0-3.17-.65-3.17-4.64Z"/>
  </g>
</svg>